<svg xmlns="http://www.w3.org/2000/svg" xmlns:xlink="http://www.w3.org/1999/xlink" width="500" zoomAndPan="magnify" viewBox="0 0 375 374.999991" height="500" preserveAspectRatio="xMidYMid meet" version="1.0"><defs><g/><clipPath id="683bfe594d"><path d="M 98.449219 149.234375 L 273.933594 149.234375 L 273.933594 225.765625 L 98.449219 225.765625 Z M 98.449219 149.234375 " clip-rule="nonzero"/></clipPath><clipPath id="965a565b38"><path d="M 111.199219 149.234375 L 260.957031 149.234375 C 264.335938 149.234375 267.578125 150.578125 269.972656 152.96875 C 272.363281 155.359375 273.707031 158.601562 273.707031 161.984375 L 273.707031 213.015625 C 273.707031 216.398438 272.363281 219.640625 269.972656 222.03125 C 267.578125 224.421875 264.335938 225.765625 260.957031 225.765625 L 111.199219 225.765625 C 107.820312 225.765625 104.574219 224.421875 102.183594 222.03125 C 99.792969 219.640625 98.449219 216.398438 98.449219 213.015625 L 98.449219 161.984375 C 98.449219 158.601562 99.792969 155.359375 102.183594 152.96875 C 104.574219 150.578125 107.820312 149.234375 111.199219 149.234375 Z M 111.199219 149.234375 " clip-rule="nonzero"/></clipPath><clipPath id="bb9f2bfa2a"><path d="M 176.460938 172.855469 L 195.960938 172.855469 L 195.960938 192.355469 L 176.460938 192.355469 Z M 176.460938 172.855469 " clip-rule="nonzero"/></clipPath><clipPath id="f0521a1de6"><path d="M 176.460938 177.355469 L 176.460938 187.59375 C 176.460938 190.078125 178.472656 192.09375 180.960938 192.09375 L 191.195312 192.09375 C 193.679688 192.09375 195.695312 190.078125 195.695312 187.59375 L 195.695312 177.355469 C 195.695312 174.871094 193.679688 172.855469 191.195312 172.855469 L 180.960938 172.855469 C 178.472656 172.855469 176.460938 174.871094 176.460938 177.355469 Z M 176.460938 177.355469 " clip-rule="nonzero"/></clipPath></defs><g clip-path="url(#683bfe594d)"><g clip-path="url(#965a565b38)"><path fill="#058fcc" d="M 98.449219 149.234375 L 273.632812 149.234375 L 273.632812 225.765625 L 98.449219 225.765625 Z M 98.449219 149.234375 " fill-opacity="1" fill-rule="nonzero"/></g></g><g clip-path="url(#bb9f2bfa2a)"><g clip-path="url(#f0521a1de6)"><path fill="#ffffff" d="M 195.003906 172.855469 L 177.148438 172.855469 C 176.765625 172.855469 176.460938 173.164062 176.460938 173.542969 L 176.460938 191.398438 C 176.460938 191.78125 176.765625 192.085938 177.148438 192.085938 L 195.003906 192.085938 C 195.382812 192.085938 195.691406 191.777344 195.691406 191.398438 L 195.691406 173.542969 C 195.691406 173.164062 195.382812 172.855469 195.003906 172.855469 Z M 195.003906 172.855469 " fill-opacity="1" fill-rule="nonzero"/></g></g><g fill="#ffffff" fill-opacity="1"><g transform="translate(118.242967, 188.473756)"><g><path d="M 3.4375 -1.671875 L 10.546875 -1.671875 L 10.546875 0 L 1.578125 0 L 1.578125 -13.96875 L 3.4375 -13.96875 Z M 3.4375 -1.671875 "/></g></g></g><g fill="#ffffff" fill-opacity="1"><g transform="translate(129.061868, 188.473756)"><g><path d="M 1.28125 -12.03125 L 1.28125 -13.96875 L 3 -13.96875 L 3 -12.03125 Z M 3 0 L 1.28125 0 L 1.28125 -10.1875 L 3 -10.1875 Z M 3 0 "/></g></g></g><g fill="#ffffff" fill-opacity="1"><g transform="translate(133.345734, 188.473756)"><g><path d="M 9.578125 0 L 7.859375 0 L 7.859375 -6.265625 C 7.859375 -7.222656 7.691406 -7.90625 7.359375 -8.3125 C 7.023438 -8.726562 6.46875 -8.9375 5.6875 -8.9375 C 4.914062 -8.9375 4.273438 -8.644531 3.765625 -8.0625 C 3.253906 -7.476562 3 -6.640625 3 -5.546875 L 3 0 L 1.28125 0 L 1.28125 -10.1875 L 2.90625 -10.1875 L 2.90625 -8.75 L 2.9375 -8.75 C 3.738281 -9.894531 4.765625 -10.46875 6.015625 -10.46875 C 7.171875 -10.46875 8.050781 -10.160156 8.65625 -9.546875 C 9.269531 -8.941406 9.578125 -8.070312 9.578125 -6.9375 Z M 9.578125 0 "/></g></g></g><g fill="#ffffff" fill-opacity="1"><g transform="translate(144.079147, 188.473756)"><g><path d="M 9.734375 0 L 7.53125 0 L 4.359375 -5.140625 L 2.9375 -3.859375 L 2.9375 0 L 1.28125 0 L 1.28125 -13.96875 L 2.9375 -13.96875 L 2.9375 -5.875 L 7.3125 -10.1875 L 9.5 -10.1875 L 5.609375 -6.390625 Z M 9.734375 0 "/></g></g></g><g fill="#ffffff" fill-opacity="1"><g transform="translate(153.805709, 188.473756)"><g><path d="M 8.265625 -5.90625 C 8.179688 -7.007812 7.890625 -7.789062 7.390625 -8.25 C 6.898438 -8.707031 6.242188 -8.9375 5.421875 -8.9375 C 4.597656 -8.9375 3.929688 -8.644531 3.421875 -8.0625 C 2.910156 -7.476562 2.640625 -6.757812 2.609375 -5.90625 Z M 9.90625 -3.1875 C 9.71875 -2.132812 9.203125 -1.265625 8.359375 -0.578125 C 7.617188 0.00390625 6.640625 0.300781 5.421875 0.3125 C 4.003906 0.300781 2.875 -0.160156 2.03125 -1.078125 C 1.195312 -2.003906 0.78125 -3.25 0.78125 -4.8125 C 0.78125 -6.59375 1.207031 -7.976562 2.0625 -8.96875 C 2.925781 -9.96875 4.128906 -10.46875 5.671875 -10.46875 C 7.046875 -10.46875 8.117188 -9.953125 8.890625 -8.921875 C 9.660156 -7.898438 10.046875 -6.4375 10.046875 -4.53125 L 2.609375 -4.53125 C 2.609375 -3.46875 2.851562 -2.644531 3.34375 -2.0625 C 3.84375 -1.476562 4.585938 -1.1875 5.578125 -1.1875 C 6.265625 -1.1875 6.859375 -1.394531 7.359375 -1.8125 C 7.867188 -2.238281 8.144531 -2.695312 8.1875 -3.1875 Z M 9.90625 -3.1875 "/></g></g></g><g fill="#ffffff" fill-opacity="1"><g transform="translate(164.586615, 188.473756)"><g><path d="M 2.546875 -5.125 C 2.546875 -3.863281 2.796875 -2.890625 3.296875 -2.203125 C 3.796875 -1.523438 4.460938 -1.1875 5.296875 -1.1875 C 6.085938 -1.1875 6.75 -1.476562 7.28125 -2.0625 C 7.8125 -2.644531 8.078125 -3.492188 8.078125 -4.609375 C 8.078125 -6.046875 7.847656 -7.125 7.390625 -7.84375 C 6.941406 -8.570312 6.253906 -8.9375 5.328125 -8.9375 C 4.453125 -8.9375 3.769531 -8.644531 3.28125 -8.0625 C 2.789062 -7.488281 2.546875 -6.507812 2.546875 -5.125 Z M 9.8125 0 L 8.1875 0 L 8.1875 -1.390625 L 8.15625 -1.390625 C 7.507812 -0.265625 6.53125 0.296875 5.21875 0.296875 C 3.800781 0.296875 2.707031 -0.238281 1.9375 -1.3125 C 1.164062 -2.394531 0.78125 -3.753906 0.78125 -5.390625 C 0.78125 -6.898438 1.160156 -8.125 1.921875 -9.0625 C 2.691406 -10 3.722656 -10.46875 5.015625 -10.46875 C 6.296875 -10.46875 7.3125 -9.894531 8.0625 -8.75 L 8.09375 -8.859375 L 8.09375 -13.96875 L 9.8125 -13.96875 Z M 9.8125 0 "/></g></g></g><g fill="#ffffff" fill-opacity="1"><g transform="translate(175.671476, 188.473756)"><g><path d="M 3.46875 0 L 1.578125 0 L 1.578125 -13.96875 L 3.46875 -13.96875 Z M 3.46875 0 "/></g></g></g><g fill="#ffffff" fill-opacity="1"><g transform="translate(180.686734, 188.473756)"><g><path d="M 3.46875 0 L 1.578125 0 L 1.578125 -13.96875 L 3.46875 -13.96875 Z M 3.46875 0 "/></g></g></g><g fill="#ffffff" fill-opacity="1"><g transform="translate(185.701993, 188.473756)"><g><path d="M 9.578125 0 L 7.859375 0 L 7.859375 -6.265625 C 7.859375 -7.222656 7.691406 -7.90625 7.359375 -8.3125 C 7.023438 -8.726562 6.46875 -8.9375 5.6875 -8.9375 C 4.914062 -8.9375 4.273438 -8.644531 3.765625 -8.0625 C 3.253906 -7.476562 3 -6.640625 3 -5.546875 L 3 0 L 1.28125 0 L 1.28125 -10.1875 L 2.90625 -10.1875 L 2.90625 -8.75 L 2.9375 -8.75 C 3.738281 -9.894531 4.765625 -10.46875 6.015625 -10.46875 C 7.171875 -10.46875 8.050781 -10.160156 8.65625 -9.546875 C 9.269531 -8.941406 9.578125 -8.070312 9.578125 -6.9375 Z M 9.578125 0 "/></g></g></g><g fill="#ffffff" fill-opacity="1"><g transform="translate(196.435406, 188.473756)"><g/></g></g><g fill="#ffffff" fill-opacity="1"><g transform="translate(201.184704, 188.473756)"><g><path d="M 1.578125 -13.96875 L 7.703125 -13.96875 C 8.910156 -13.96875 9.875 -13.640625 10.59375 -12.984375 C 11.3125 -12.335938 11.671875 -11.492188 11.671875 -10.453125 C 11.671875 -9.828125 11.507812 -9.253906 11.1875 -8.734375 C 10.875 -8.222656 10.410156 -7.820312 9.796875 -7.53125 C 10.660156 -7.207031 11.296875 -6.769531 11.703125 -6.21875 C 12.109375 -5.675781 12.3125 -4.976562 12.3125 -4.125 C 12.3125 -2.914062 11.878906 -1.925781 11.015625 -1.15625 C 10.148438 -0.382812 9.003906 0 7.578125 0 L 1.578125 0 Z M 3.4375 -1.609375 L 7.46875 -1.609375 C 8.457031 -1.609375 9.195312 -1.835938 9.6875 -2.296875 C 10.1875 -2.765625 10.4375 -3.382812 10.4375 -4.15625 C 10.4375 -4.957031 10.160156 -5.550781 9.609375 -5.9375 C 9.054688 -6.320312 8.242188 -6.515625 7.171875 -6.515625 L 3.4375 -6.515625 Z M 3.4375 -8.0625 L 6.875 -8.0625 C 7.875 -8.0625 8.601562 -8.242188 9.0625 -8.609375 C 9.53125 -8.972656 9.765625 -9.539062 9.765625 -10.3125 C 9.765625 -10.976562 9.546875 -11.484375 9.109375 -11.828125 C 8.671875 -12.179688 7.929688 -12.359375 6.890625 -12.359375 L 3.4375 -12.359375 Z M 3.4375 -8.0625 "/></g></g></g><g fill="#ffffff" fill-opacity="1"><g transform="translate(214.254771, 188.473756)"><g><path d="M 1.1875 -10.1875 L 2.90625 -10.1875 L 2.90625 -3.421875 C 2.90625 -2.671875 3.070312 -2.109375 3.40625 -1.734375 C 3.75 -1.367188 4.238281 -1.1875 4.875 -1.1875 C 5.75 -1.1875 6.429688 -1.5 6.921875 -2.125 C 7.421875 -2.75 7.671875 -3.566406 7.671875 -4.578125 L 7.671875 -10.1875 L 9.375 -10.1875 L 9.375 0 L 7.765625 0 L 7.765625 -1.484375 L 7.734375 -1.515625 C 7.085938 -0.304688 6.007812 0.296875 4.5 0.296875 C 3.519531 0.296875 2.722656 0.03125 2.109375 -0.5 C 1.492188 -1.03125 1.1875 -1.816406 1.1875 -2.859375 Z M 1.1875 -10.1875 "/></g></g></g><g fill="#ffffff" fill-opacity="1"><g transform="translate(224.912196, 188.473756)"><g><path d="M 2.546875 -5.125 C 2.546875 -3.863281 2.796875 -2.890625 3.296875 -2.203125 C 3.796875 -1.523438 4.460938 -1.1875 5.296875 -1.1875 C 6.085938 -1.1875 6.75 -1.476562 7.28125 -2.0625 C 7.8125 -2.644531 8.078125 -3.492188 8.078125 -4.609375 C 8.078125 -6.046875 7.847656 -7.125 7.390625 -7.84375 C 6.941406 -8.570312 6.253906 -8.9375 5.328125 -8.9375 C 4.453125 -8.9375 3.769531 -8.644531 3.28125 -8.0625 C 2.789062 -7.488281 2.546875 -6.507812 2.546875 -5.125 Z M 9.8125 0 L 8.1875 0 L 8.1875 -1.390625 L 8.15625 -1.390625 C 7.507812 -0.265625 6.53125 0.296875 5.21875 0.296875 C 3.800781 0.296875 2.707031 -0.238281 1.9375 -1.3125 C 1.164062 -2.394531 0.78125 -3.753906 0.78125 -5.390625 C 0.78125 -6.898438 1.160156 -8.125 1.921875 -9.0625 C 2.691406 -10 3.722656 -10.46875 5.015625 -10.46875 C 6.296875 -10.46875 7.3125 -9.894531 8.0625 -8.75 L 8.09375 -8.859375 L 8.09375 -13.96875 L 9.8125 -13.96875 Z M 9.8125 0 "/></g></g></g><g fill="#ffffff" fill-opacity="1"><g transform="translate(235.997057, 188.473756)"><g><path d="M 2.546875 -5.125 C 2.546875 -3.863281 2.796875 -2.890625 3.296875 -2.203125 C 3.796875 -1.523438 4.460938 -1.1875 5.296875 -1.1875 C 6.085938 -1.1875 6.75 -1.476562 7.28125 -2.0625 C 7.8125 -2.644531 8.078125 -3.492188 8.078125 -4.609375 C 8.078125 -6.046875 7.847656 -7.125 7.390625 -7.84375 C 6.941406 -8.570312 6.253906 -8.9375 5.328125 -8.9375 C 4.453125 -8.9375 3.769531 -8.644531 3.28125 -8.0625 C 2.789062 -7.488281 2.546875 -6.507812 2.546875 -5.125 Z M 9.8125 0 L 8.1875 0 L 8.1875 -1.390625 L 8.15625 -1.390625 C 7.507812 -0.265625 6.53125 0.296875 5.21875 0.296875 C 3.800781 0.296875 2.707031 -0.238281 1.9375 -1.3125 C 1.164062 -2.394531 0.78125 -3.753906 0.78125 -5.390625 C 0.78125 -6.898438 1.160156 -8.125 1.921875 -9.0625 C 2.691406 -10 3.722656 -10.46875 5.015625 -10.46875 C 6.296875 -10.46875 7.3125 -9.894531 8.0625 -8.75 L 8.09375 -8.859375 L 8.09375 -13.96875 L 9.8125 -13.96875 Z M 9.8125 0 "/></g></g></g><g fill="#ffffff" fill-opacity="1"><g transform="translate(247.081918, 188.473756)"><g><path d="M 7.59375 -10.1875 L 9.453125 -10.1875 L 5.8125 -0.1875 C 5.75 -0.0078125 5.6875 0.15625 5.625 0.3125 C 5.070312 1.78125 4.597656 2.785156 4.203125 3.328125 C 3.804688 3.878906 3.160156 4.15625 2.265625 4.15625 C 1.796875 4.15625 1.410156 4.109375 1.109375 4.015625 L 1.109375 2.453125 C 1.429688 2.566406 1.785156 2.625 2.171875 2.625 C 2.585938 2.625 2.894531 2.488281 3.09375 2.21875 C 3.289062 1.957031 3.578125 1.316406 3.953125 0.296875 L 0.171875 -10.1875 L 2.09375 -10.1875 L 4.828125 -1.890625 L 4.875 -1.890625 Z M 7.59375 -10.1875 "/></g></g></g><g fill="#058fcc" fill-opacity="1"><g transform="translate(177.693831, 187.823748)"><g><path d="M 4.125 0 L 1.359375 0 L 1.359375 -13.25 L 4.125 -13.25 Z M 4.125 0 "/></g></g></g><g fill="#058fcc" fill-opacity="1"><g transform="translate(183.164255, 187.823748)"><g><path d="M 10.140625 0 L 7.5625 0 L 7.5625 -6.109375 C 7.5625 -6.679688 7.429688 -7.125 7.171875 -7.4375 C 6.910156 -7.75 6.476562 -7.90625 5.875 -7.90625 C 5.257812 -7.90625 4.765625 -7.703125 4.390625 -7.296875 C 4.023438 -6.890625 3.84375 -6.335938 3.84375 -5.640625 L 3.84375 0 L 1.265625 0 L 1.265625 -9.828125 L 3.75 -9.828125 L 3.75 -8.390625 L 3.78125 -8.390625 C 4.394531 -9.515625 5.367188 -10.078125 6.703125 -10.078125 C 7.710938 -10.078125 8.535156 -9.789062 9.171875 -9.21875 C 9.816406 -8.644531 10.140625 -7.835938 10.140625 -6.796875 Z M 10.140625 0 "/></g></g></g><g fill="#ffffff" fill-opacity="1"><g transform="translate(137.908426, 202.579931)"><g><path d="M 2.40625 0 L 1.78125 0 L 1.78125 -1.875 L 0.03125 -4.640625 L 0.765625 -4.640625 L 2.09375 -2.40625 L 3.421875 -4.640625 L 4.171875 -4.640625 L 2.40625 -1.875 Z M 2.40625 0 "/></g></g><g transform="translate(142.100678, 202.579931)"><g><path d="M 0.828125 -1.703125 C 0.828125 -1.316406 0.910156 -1.003906 1.078125 -0.765625 C 1.242188 -0.523438 1.484375 -0.40625 1.796875 -0.40625 C 2.128906 -0.40625 2.378906 -0.53125 2.546875 -0.78125 C 2.710938 -1.039062 2.796875 -1.347656 2.796875 -1.703125 C 2.796875 -2.054688 2.710938 -2.359375 2.546875 -2.609375 C 2.378906 -2.859375 2.128906 -2.984375 1.796875 -2.984375 C 1.503906 -2.984375 1.269531 -2.863281 1.09375 -2.625 C 0.914062 -2.394531 0.828125 -2.085938 0.828125 -1.703125 Z M 0.234375 -1.703125 C 0.234375 -2.203125 0.375 -2.625 0.65625 -2.96875 C 0.9375 -3.3125 1.316406 -3.484375 1.796875 -3.484375 C 2.296875 -3.484375 2.679688 -3.304688 2.953125 -2.953125 C 3.234375 -2.609375 3.375 -2.191406 3.375 -1.703125 C 3.375 -1.203125 3.234375 -0.773438 2.953125 -0.421875 C 2.679688 -0.078125 2.296875 0.09375 1.796875 0.09375 C 1.328125 0.09375 0.945312 -0.0703125 0.65625 -0.40625 C 0.375 -0.75 0.234375 -1.179688 0.234375 -1.703125 Z M 0.234375 -1.703125 "/></g></g><g transform="translate(145.717957, 202.579931)"><g><path d="M 0.390625 -3.390625 L 0.96875 -3.390625 L 0.96875 -1.140625 C 0.96875 -0.890625 1.019531 -0.703125 1.125 -0.578125 C 1.238281 -0.453125 1.40625 -0.390625 1.625 -0.390625 C 1.914062 -0.390625 2.140625 -0.492188 2.296875 -0.703125 C 2.460938 -0.910156 2.546875 -1.179688 2.546875 -1.515625 L 2.546875 -3.390625 L 3.125 -3.390625 L 3.125 0 L 2.578125 0 L 2.578125 -0.5 L 2.5625 -0.5 C 2.351562 -0.101562 2 0.09375 1.5 0.09375 C 1.164062 0.09375 0.894531 0.00390625 0.6875 -0.171875 C 0.488281 -0.347656 0.390625 -0.609375 0.390625 -0.953125 Z M 0.390625 -3.390625 "/></g></g><g transform="translate(149.262574, 202.579931)"><g><path d="M 1 0 L 0.421875 0 L 0.421875 -3.390625 L 0.96875 -3.390625 L 0.96875 -2.828125 C 1.21875 -3.265625 1.535156 -3.484375 1.921875 -3.484375 C 1.984375 -3.484375 2.035156 -3.476562 2.078125 -3.46875 L 2.078125 -2.875 L 1.859375 -2.875 C 1.609375 -2.875 1.398438 -2.785156 1.234375 -2.609375 C 1.078125 -2.441406 1 -2.226562 1 -1.96875 Z M 1 0 "/></g></g><g transform="translate(151.369757, 202.579931)"><g/></g><g transform="translate(152.949355, 202.579931)"><g><path d="M 4.140625 -4.640625 L 4.140625 -1.625 C 4.140625 -1.113281 3.976562 -0.691406 3.65625 -0.359375 C 3.332031 -0.0351562 2.875 0.125 2.28125 0.125 C 1.71875 0.125 1.28125 -0.0234375 0.96875 -0.328125 C 0.65625 -0.628906 0.5 -1.035156 0.5 -1.546875 L 0.5 -4.640625 L 1.109375 -4.640625 L 1.109375 -1.71875 C 1.109375 -1.289062 1.210938 -0.96875 1.421875 -0.75 C 1.640625 -0.539062 1.929688 -0.4375 2.296875 -0.4375 C 2.671875 -0.4375 2.96875 -0.539062 3.1875 -0.75 C 3.40625 -0.96875 3.515625 -1.285156 3.515625 -1.703125 L 3.515625 -4.640625 Z M 4.140625 -4.640625 "/></g></g><g transform="translate(157.580736, 202.579931)"><g><path d="M 1 0 L 0.421875 0 L 0.421875 -4.640625 L 1 -4.640625 Z M 1 0 "/></g></g><g transform="translate(159.005533, 202.579931)"><g><path d="M 1.109375 -2.90625 L 1.109375 -0.703125 C 1.109375 -0.617188 1.128906 -0.554688 1.171875 -0.515625 C 1.222656 -0.472656 1.3125 -0.453125 1.4375 -0.453125 L 1.65625 -0.453125 L 1.65625 0 C 1.445312 0.03125 1.304688 0.046875 1.234375 0.046875 C 0.992188 0.046875 0.816406 -0.0078125 0.703125 -0.125 C 0.597656 -0.238281 0.546875 -0.421875 0.546875 -0.671875 L 0.546875 -2.90625 L 0.078125 -2.90625 L 0.078125 -3.390625 L 0.546875 -3.390625 L 0.546875 -4.328125 L 1.109375 -4.328125 L 1.109375 -3.390625 L 1.65625 -3.390625 L 1.65625 -2.90625 Z M 1.109375 -2.90625 "/></g></g><g transform="translate(160.796796, 202.579931)"><g><path d="M 0.421875 -4 L 0.421875 -4.640625 L 1 -4.640625 L 1 -4 Z M 1 0 L 0.421875 0 L 0.421875 -3.390625 L 1 -3.390625 Z M 1 0 "/></g></g><g transform="translate(162.221594, 202.579931)"><g><path d="M 0.421875 -3.390625 L 0.96875 -3.390625 L 0.96875 -2.90625 C 1.226562 -3.289062 1.570312 -3.484375 2 -3.484375 C 2.425781 -3.484375 2.726562 -3.300781 2.90625 -2.9375 C 3.0625 -3.132812 3.210938 -3.273438 3.359375 -3.359375 C 3.515625 -3.441406 3.707031 -3.484375 3.9375 -3.484375 C 4.226562 -3.484375 4.472656 -3.382812 4.671875 -3.1875 C 4.878906 -3 4.984375 -2.71875 4.984375 -2.34375 L 4.984375 0 L 4.40625 0 L 4.40625 -2.1875 C 4.40625 -2.445312 4.351562 -2.640625 4.25 -2.765625 C 4.15625 -2.898438 4 -2.96875 3.78125 -2.96875 C 3.5625 -2.96875 3.375 -2.875 3.21875 -2.6875 C 3.0625 -2.507812 2.984375 -2.300781 2.984375 -2.0625 L 2.984375 0 L 2.421875 0 L 2.421875 -2.34375 C 2.421875 -2.539062 2.375 -2.691406 2.28125 -2.796875 C 2.1875 -2.910156 2.054688 -2.96875 1.890625 -2.96875 C 1.617188 -2.96875 1.398438 -2.863281 1.234375 -2.65625 C 1.078125 -2.457031 1 -2.1875 1 -1.84375 L 1 0 L 0.421875 0 Z M 0.421875 -3.390625 "/></g></g><g transform="translate(167.592226, 202.579931)"><g><path d="M 2.484375 -1.734375 C 2.441406 -1.679688 2.359375 -1.640625 2.234375 -1.609375 C 2.109375 -1.585938 1.878906 -1.554688 1.546875 -1.515625 C 1.296875 -1.484375 1.113281 -1.421875 1 -1.328125 C 0.882812 -1.234375 0.828125 -1.113281 0.828125 -0.96875 C 0.828125 -0.78125 0.875 -0.632812 0.96875 -0.53125 C 1.070312 -0.425781 1.226562 -0.375 1.4375 -0.375 C 1.707031 -0.375 1.945312 -0.453125 2.15625 -0.609375 C 2.375 -0.765625 2.484375 -0.953125 2.484375 -1.171875 Z M 0.40625 -2.359375 C 0.414062 -2.734375 0.535156 -3.015625 0.765625 -3.203125 C 1.003906 -3.390625 1.347656 -3.484375 1.796875 -3.484375 C 2.148438 -3.484375 2.445312 -3.398438 2.6875 -3.234375 C 2.9375 -3.078125 3.0625 -2.84375 3.0625 -2.53125 L 3.0625 -0.59375 C 3.0625 -0.457031 3.117188 -0.390625 3.234375 -0.390625 C 3.285156 -0.390625 3.347656 -0.394531 3.421875 -0.40625 L 3.421875 0 C 3.316406 0.0390625 3.210938 0.0625 3.109375 0.0625 C 2.910156 0.0625 2.765625 0.0195312 2.671875 -0.0625 C 2.578125 -0.144531 2.53125 -0.273438 2.53125 -0.453125 C 2.195312 -0.0859375 1.785156 0.09375 1.296875 0.09375 C 0.984375 0.09375 0.726562 0.00390625 0.53125 -0.171875 C 0.332031 -0.359375 0.234375 -0.59375 0.234375 -0.875 C 0.234375 -1.175781 0.316406 -1.414062 0.484375 -1.59375 C 0.660156 -1.78125 0.910156 -1.894531 1.234375 -1.9375 L 2.234375 -2.0625 C 2.410156 -2.082031 2.5 -2.210938 2.5 -2.453125 C 2.5 -2.628906 2.429688 -2.765625 2.296875 -2.859375 C 2.171875 -2.953125 1.972656 -3 1.703125 -3 C 1.472656 -3 1.289062 -2.945312 1.15625 -2.84375 C 1.03125 -2.738281 0.957031 -2.578125 0.9375 -2.359375 Z M 0.40625 -2.359375 "/></g></g><g transform="translate(171.146321, 202.579931)"><g><path d="M 1.109375 -2.90625 L 1.109375 -0.703125 C 1.109375 -0.617188 1.128906 -0.554688 1.171875 -0.515625 C 1.222656 -0.472656 1.3125 -0.453125 1.4375 -0.453125 L 1.65625 -0.453125 L 1.65625 0 C 1.445312 0.03125 1.304688 0.046875 1.234375 0.046875 C 0.992188 0.046875 0.816406 -0.0078125 0.703125 -0.125 C 0.597656 -0.238281 0.546875 -0.421875 0.546875 -0.671875 L 0.546875 -2.90625 L 0.078125 -2.90625 L 0.078125 -3.390625 L 0.546875 -3.390625 L 0.546875 -4.328125 L 1.109375 -4.328125 L 1.109375 -3.390625 L 1.65625 -3.390625 L 1.65625 -2.90625 Z M 1.109375 -2.90625 "/></g></g><g transform="translate(172.937584, 202.579931)"><g><path d="M 2.75 -1.96875 C 2.71875 -2.332031 2.617188 -2.585938 2.453125 -2.734375 C 2.296875 -2.890625 2.078125 -2.96875 1.796875 -2.96875 C 1.523438 -2.96875 1.300781 -2.867188 1.125 -2.671875 C 0.957031 -2.484375 0.867188 -2.25 0.859375 -1.96875 Z M 3.296875 -1.0625 C 3.234375 -0.707031 3.0625 -0.414062 2.78125 -0.1875 C 2.53125 0 2.203125 0.0976562 1.796875 0.109375 C 1.328125 0.0976562 0.953125 -0.0546875 0.671875 -0.359375 C 0.398438 -0.671875 0.265625 -1.082031 0.265625 -1.59375 C 0.265625 -2.1875 0.40625 -2.648438 0.6875 -2.984375 C 0.976562 -3.316406 1.375 -3.484375 1.875 -3.484375 C 2.332031 -3.484375 2.691406 -3.3125 2.953125 -2.96875 C 3.210938 -2.625 3.34375 -2.132812 3.34375 -1.5 L 0.859375 -1.5 C 0.859375 -1.144531 0.941406 -0.867188 1.109375 -0.671875 C 1.273438 -0.484375 1.519531 -0.390625 1.84375 -0.390625 C 2.082031 -0.390625 2.285156 -0.457031 2.453125 -0.59375 C 2.617188 -0.738281 2.707031 -0.894531 2.71875 -1.0625 Z M 3.296875 -1.0625 "/></g></g><g transform="translate(176.523271, 202.579931)"><g/></g><g transform="translate(178.102869, 202.579931)"><g><path d="M 1.140625 -0.5625 L 3.5 -0.5625 L 3.5 0 L 0.53125 0 L 0.53125 -4.640625 L 1.140625 -4.640625 Z M 1.140625 -0.5625 "/></g></g><g transform="translate(181.701193, 202.579931)"><g><path d="M 0.421875 -4 L 0.421875 -4.640625 L 1 -4.640625 L 1 -4 Z M 1 0 L 0.421875 0 L 0.421875 -3.390625 L 1 -3.390625 Z M 1 0 "/></g></g><g transform="translate(183.12599, 202.579931)"><g><path d="M 3.1875 0 L 2.609375 0 L 2.609375 -2.078125 C 2.609375 -2.398438 2.550781 -2.628906 2.4375 -2.765625 C 2.332031 -2.898438 2.148438 -2.96875 1.890625 -2.96875 C 1.628906 -2.96875 1.414062 -2.867188 1.25 -2.671875 C 1.082031 -2.484375 1 -2.207031 1 -1.84375 L 1 0 L 0.421875 0 L 0.421875 -3.390625 L 0.96875 -3.390625 L 0.96875 -2.90625 C 1.238281 -3.289062 1.582031 -3.484375 2 -3.484375 C 2.382812 -3.484375 2.675781 -3.378906 2.875 -3.171875 C 3.082031 -2.972656 3.1875 -2.679688 3.1875 -2.296875 Z M 3.1875 0 "/></g></g><g transform="translate(186.69588, 202.579931)"><g><path d="M 3.234375 0 L 2.5 0 L 1.453125 -1.703125 L 0.96875 -1.28125 L 0.96875 0 L 0.421875 0 L 0.421875 -4.640625 L 0.96875 -4.640625 L 0.96875 -1.953125 L 2.4375 -3.390625 L 3.15625 -3.390625 L 1.859375 -2.125 Z M 3.234375 0 "/></g></g><g transform="translate(189.930896, 202.579931)"><g><path d="M 2.75 -1.96875 C 2.71875 -2.332031 2.617188 -2.585938 2.453125 -2.734375 C 2.296875 -2.890625 2.078125 -2.96875 1.796875 -2.96875 C 1.523438 -2.96875 1.300781 -2.867188 1.125 -2.671875 C 0.957031 -2.484375 0.867188 -2.25 0.859375 -1.96875 Z M 3.296875 -1.0625 C 3.234375 -0.707031 3.0625 -0.414062 2.78125 -0.1875 C 2.53125 0 2.203125 0.0976562 1.796875 0.109375 C 1.328125 0.0976562 0.953125 -0.0546875 0.671875 -0.359375 C 0.398438 -0.671875 0.265625 -1.082031 0.265625 -1.59375 C 0.265625 -2.1875 0.40625 -2.648438 0.6875 -2.984375 C 0.976562 -3.316406 1.375 -3.484375 1.875 -3.484375 C 2.332031 -3.484375 2.691406 -3.3125 2.953125 -2.96875 C 3.210938 -2.625 3.34375 -2.132812 3.34375 -1.5 L 0.859375 -1.5 C 0.859375 -1.144531 0.941406 -0.867188 1.109375 -0.671875 C 1.273438 -0.484375 1.519531 -0.390625 1.84375 -0.390625 C 2.082031 -0.390625 2.285156 -0.457031 2.453125 -0.59375 C 2.617188 -0.738281 2.707031 -0.894531 2.71875 -1.0625 Z M 3.296875 -1.0625 "/></g></g><g transform="translate(193.516583, 202.579931)"><g><path d="M 0.84375 -1.703125 C 0.84375 -1.285156 0.925781 -0.960938 1.09375 -0.734375 C 1.257812 -0.503906 1.484375 -0.390625 1.765625 -0.390625 C 2.023438 -0.390625 2.242188 -0.484375 2.421875 -0.671875 C 2.597656 -0.867188 2.6875 -1.15625 2.6875 -1.53125 C 2.6875 -2.007812 2.609375 -2.367188 2.453125 -2.609375 C 2.304688 -2.847656 2.078125 -2.96875 1.765625 -2.96875 C 1.472656 -2.96875 1.242188 -2.867188 1.078125 -2.671875 C 0.921875 -2.484375 0.84375 -2.160156 0.84375 -1.703125 Z M 3.265625 0 L 2.71875 0 L 2.71875 -0.46875 L 2.703125 -0.46875 C 2.492188 -0.09375 2.171875 0.09375 1.734375 0.09375 C 1.265625 0.09375 0.898438 -0.0820312 0.640625 -0.4375 C 0.390625 -0.789062 0.265625 -1.242188 0.265625 -1.796875 C 0.265625 -2.296875 0.390625 -2.703125 0.640625 -3.015625 C 0.890625 -3.328125 1.234375 -3.484375 1.671875 -3.484375 C 2.085938 -3.484375 2.421875 -3.289062 2.671875 -2.90625 L 2.6875 -2.9375 L 2.6875 -4.640625 L 3.265625 -4.640625 Z M 3.265625 0 "/></g></g><g transform="translate(197.203364, 202.579931)"><g><path d="M 1.15625 0 L 0.53125 0 L 0.53125 -4.640625 L 1.15625 -4.640625 Z M 1.15625 0 "/></g></g><g transform="translate(198.871419, 202.579931)"><g><path d="M 3.1875 0 L 2.609375 0 L 2.609375 -2.078125 C 2.609375 -2.398438 2.550781 -2.628906 2.4375 -2.765625 C 2.332031 -2.898438 2.148438 -2.96875 1.890625 -2.96875 C 1.628906 -2.96875 1.414062 -2.867188 1.25 -2.671875 C 1.082031 -2.484375 1 -2.207031 1 -1.84375 L 1 0 L 0.421875 0 L 0.421875 -3.390625 L 0.96875 -3.390625 L 0.96875 -2.90625 C 1.238281 -3.289062 1.582031 -3.484375 2 -3.484375 C 2.382812 -3.484375 2.675781 -3.378906 2.875 -3.171875 C 3.082031 -2.972656 3.1875 -2.679688 3.1875 -2.296875 Z M 3.1875 0 "/></g></g><g transform="translate(202.44131, 202.579931)"><g/></g><g transform="translate(204.020908, 202.579931)"><g><path d="M 3.75 -3.25 C 3.675781 -3.5625 3.53125 -3.796875 3.3125 -3.953125 C 3.09375 -4.117188 2.804688 -4.203125 2.453125 -4.203125 C 1.992188 -4.203125 1.625 -4.035156 1.34375 -3.703125 C 1.070312 -3.378906 0.9375 -2.9375 0.9375 -2.375 C 0.9375 -1.71875 1.066406 -1.226562 1.328125 -0.90625 C 1.585938 -0.59375 1.96875 -0.4375 2.46875 -0.4375 C 2.800781 -0.4375 3.082031 -0.546875 3.3125 -0.765625 C 3.550781 -0.984375 3.710938 -1.296875 3.796875 -1.703125 L 4.40625 -1.703125 C 4.320312 -1.109375 4.09375 -0.65625 3.71875 -0.34375 C 3.351562 -0.03125 2.90625 0.125 2.375 0.125 C 1.738281 0.125 1.226562 -0.09375 0.84375 -0.53125 C 0.46875 -0.96875 0.28125 -1.570312 0.28125 -2.34375 C 0.28125 -3.09375 0.476562 -3.679688 0.875 -4.109375 C 1.269531 -4.546875 1.796875 -4.765625 2.453125 -4.765625 C 2.992188 -4.765625 3.429688 -4.625 3.765625 -4.34375 C 4.097656 -4.070312 4.296875 -3.707031 4.359375 -3.25 Z M 3.75 -3.25 "/></g></g><g transform="translate(208.699676, 202.579931)"><g><path d="M 0.828125 -1.703125 C 0.828125 -1.316406 0.910156 -1.003906 1.078125 -0.765625 C 1.242188 -0.523438 1.484375 -0.40625 1.796875 -0.40625 C 2.128906 -0.40625 2.378906 -0.53125 2.546875 -0.78125 C 2.710938 -1.039062 2.796875 -1.347656 2.796875 -1.703125 C 2.796875 -2.054688 2.710938 -2.359375 2.546875 -2.609375 C 2.378906 -2.859375 2.128906 -2.984375 1.796875 -2.984375 C 1.503906 -2.984375 1.269531 -2.863281 1.09375 -2.625 C 0.914062 -2.394531 0.828125 -2.085938 0.828125 -1.703125 Z M 0.234375 -1.703125 C 0.234375 -2.203125 0.375 -2.625 0.65625 -2.96875 C 0.9375 -3.3125 1.316406 -3.484375 1.796875 -3.484375 C 2.296875 -3.484375 2.679688 -3.304688 2.953125 -2.953125 C 3.234375 -2.609375 3.375 -2.191406 3.375 -1.703125 C 3.375 -1.203125 3.234375 -0.773438 2.953125 -0.421875 C 2.679688 -0.078125 2.296875 0.09375 1.796875 0.09375 C 1.328125 0.09375 0.945312 -0.0703125 0.65625 -0.40625 C 0.375 -0.75 0.234375 -1.179688 0.234375 -1.703125 Z M 0.234375 -1.703125 "/></g></g><g transform="translate(212.316955, 202.579931)"><g><path d="M 0.421875 -3.390625 L 0.96875 -3.390625 L 0.96875 -2.90625 C 1.226562 -3.289062 1.570312 -3.484375 2 -3.484375 C 2.425781 -3.484375 2.726562 -3.300781 2.90625 -2.9375 C 3.0625 -3.132812 3.210938 -3.273438 3.359375 -3.359375 C 3.515625 -3.441406 3.707031 -3.484375 3.9375 -3.484375 C 4.226562 -3.484375 4.472656 -3.382812 4.671875 -3.1875 C 4.878906 -3 4.984375 -2.71875 4.984375 -2.34375 L 4.984375 0 L 4.40625 0 L 4.40625 -2.1875 C 4.40625 -2.445312 4.351562 -2.640625 4.25 -2.765625 C 4.15625 -2.898438 4 -2.96875 3.78125 -2.96875 C 3.5625 -2.96875 3.375 -2.875 3.21875 -2.6875 C 3.0625 -2.507812 2.984375 -2.300781 2.984375 -2.0625 L 2.984375 0 L 2.421875 0 L 2.421875 -2.34375 C 2.421875 -2.539062 2.375 -2.691406 2.28125 -2.796875 C 2.1875 -2.910156 2.054688 -2.96875 1.890625 -2.96875 C 1.617188 -2.96875 1.398438 -2.863281 1.234375 -2.65625 C 1.078125 -2.457031 1 -2.1875 1 -1.84375 L 1 0 L 0.421875 0 Z M 0.421875 -3.390625 "/></g></g><g transform="translate(217.687587, 202.579931)"><g><path d="M 0.96875 -1.53125 C 0.96875 -1.164062 1.054688 -0.882812 1.234375 -0.6875 C 1.410156 -0.488281 1.628906 -0.390625 1.890625 -0.390625 C 2.179688 -0.390625 2.40625 -0.503906 2.5625 -0.734375 C 2.726562 -0.972656 2.8125 -1.296875 2.8125 -1.703125 C 2.8125 -2.140625 2.734375 -2.457031 2.578125 -2.65625 C 2.421875 -2.863281 2.1875 -2.96875 1.875 -2.96875 C 1.582031 -2.96875 1.359375 -2.847656 1.203125 -2.609375 C 1.046875 -2.378906 0.96875 -2.019531 0.96875 -1.53125 Z M 0.421875 -3.390625 L 0.96875 -3.390625 L 0.96875 -2.90625 C 1.21875 -3.289062 1.554688 -3.484375 1.984375 -3.484375 C 2.421875 -3.484375 2.765625 -3.320312 3.015625 -3 C 3.265625 -2.6875 3.390625 -2.285156 3.390625 -1.796875 C 3.390625 -1.242188 3.257812 -0.789062 3 -0.4375 C 2.75 -0.0820312 2.382812 0.09375 1.90625 0.09375 C 1.507812 0.09375 1.207031 -0.0546875 1 -0.359375 L 1 1.34375 L 0.421875 1.34375 Z M 0.421875 -3.390625 "/></g></g><g transform="translate(221.342776, 202.579931)"><g><path d="M 2.484375 -1.734375 C 2.441406 -1.679688 2.359375 -1.640625 2.234375 -1.609375 C 2.109375 -1.585938 1.878906 -1.554688 1.546875 -1.515625 C 1.296875 -1.484375 1.113281 -1.421875 1 -1.328125 C 0.882812 -1.234375 0.828125 -1.113281 0.828125 -0.96875 C 0.828125 -0.78125 0.875 -0.632812 0.96875 -0.53125 C 1.070312 -0.425781 1.226562 -0.375 1.4375 -0.375 C 1.707031 -0.375 1.945312 -0.453125 2.15625 -0.609375 C 2.375 -0.765625 2.484375 -0.953125 2.484375 -1.171875 Z M 0.40625 -2.359375 C 0.414062 -2.734375 0.535156 -3.015625 0.765625 -3.203125 C 1.003906 -3.390625 1.347656 -3.484375 1.796875 -3.484375 C 2.148438 -3.484375 2.445312 -3.398438 2.6875 -3.234375 C 2.9375 -3.078125 3.0625 -2.84375 3.0625 -2.53125 L 3.0625 -0.59375 C 3.0625 -0.457031 3.117188 -0.390625 3.234375 -0.390625 C 3.285156 -0.390625 3.347656 -0.394531 3.421875 -0.40625 L 3.421875 0 C 3.316406 0.0390625 3.210938 0.0625 3.109375 0.0625 C 2.910156 0.0625 2.765625 0.0195312 2.671875 -0.0625 C 2.578125 -0.144531 2.53125 -0.273438 2.53125 -0.453125 C 2.195312 -0.0859375 1.785156 0.09375 1.296875 0.09375 C 0.984375 0.09375 0.726562 0.00390625 0.53125 -0.171875 C 0.332031 -0.359375 0.234375 -0.59375 0.234375 -0.875 C 0.234375 -1.175781 0.316406 -1.414062 0.484375 -1.59375 C 0.660156 -1.78125 0.910156 -1.894531 1.234375 -1.9375 L 2.234375 -2.0625 C 2.410156 -2.082031 2.5 -2.210938 2.5 -2.453125 C 2.5 -2.628906 2.429688 -2.765625 2.296875 -2.859375 C 2.171875 -2.953125 1.972656 -3 1.703125 -3 C 1.472656 -3 1.289062 -2.945312 1.15625 -2.84375 C 1.03125 -2.738281 0.957031 -2.578125 0.9375 -2.359375 Z M 0.40625 -2.359375 "/></g></g><g transform="translate(224.896871, 202.579931)"><g><path d="M 3.1875 0 L 2.609375 0 L 2.609375 -2.078125 C 2.609375 -2.398438 2.550781 -2.628906 2.4375 -2.765625 C 2.332031 -2.898438 2.148438 -2.96875 1.890625 -2.96875 C 1.628906 -2.96875 1.414062 -2.867188 1.25 -2.671875 C 1.082031 -2.484375 1 -2.207031 1 -1.84375 L 1 0 L 0.421875 0 L 0.421875 -3.390625 L 0.96875 -3.390625 L 0.96875 -2.90625 C 1.238281 -3.289062 1.582031 -3.484375 2 -3.484375 C 2.382812 -3.484375 2.675781 -3.378906 2.875 -3.171875 C 3.082031 -2.972656 3.1875 -2.679688 3.1875 -2.296875 Z M 3.1875 0 "/></g></g><g transform="translate(228.466762, 202.579931)"><g><path d="M 0.421875 -4 L 0.421875 -4.640625 L 1 -4.640625 L 1 -4 Z M 1 0 L 0.421875 0 L 0.421875 -3.390625 L 1 -3.390625 Z M 1 0 "/></g></g><g transform="translate(229.891559, 202.579931)"><g><path d="M 0.828125 -1.703125 C 0.828125 -1.316406 0.910156 -1.003906 1.078125 -0.765625 C 1.242188 -0.523438 1.484375 -0.40625 1.796875 -0.40625 C 2.128906 -0.40625 2.378906 -0.53125 2.546875 -0.78125 C 2.710938 -1.039062 2.796875 -1.347656 2.796875 -1.703125 C 2.796875 -2.054688 2.710938 -2.359375 2.546875 -2.609375 C 2.378906 -2.859375 2.128906 -2.984375 1.796875 -2.984375 C 1.503906 -2.984375 1.269531 -2.863281 1.09375 -2.625 C 0.914062 -2.394531 0.828125 -2.085938 0.828125 -1.703125 Z M 0.234375 -1.703125 C 0.234375 -2.203125 0.375 -2.625 0.65625 -2.96875 C 0.9375 -3.3125 1.316406 -3.484375 1.796875 -3.484375 C 2.296875 -3.484375 2.679688 -3.304688 2.953125 -2.953125 C 3.234375 -2.609375 3.375 -2.191406 3.375 -1.703125 C 3.375 -1.203125 3.234375 -0.773438 2.953125 -0.421875 C 2.679688 -0.078125 2.296875 0.09375 1.796875 0.09375 C 1.328125 0.09375 0.945312 -0.0703125 0.65625 -0.40625 C 0.375 -0.75 0.234375 -1.179688 0.234375 -1.703125 Z M 0.234375 -1.703125 "/></g></g><g transform="translate(233.508838, 202.579931)"><g><path d="M 3.1875 0 L 2.609375 0 L 2.609375 -2.078125 C 2.609375 -2.398438 2.550781 -2.628906 2.4375 -2.765625 C 2.332031 -2.898438 2.148438 -2.96875 1.890625 -2.96875 C 1.628906 -2.96875 1.414062 -2.867188 1.25 -2.671875 C 1.082031 -2.484375 1 -2.207031 1 -1.84375 L 1 0 L 0.421875 0 L 0.421875 -3.390625 L 0.96875 -3.390625 L 0.96875 -2.90625 C 1.238281 -3.289062 1.582031 -3.484375 2 -3.484375 C 2.382812 -3.484375 2.675781 -3.378906 2.875 -3.171875 C 3.082031 -2.972656 3.1875 -2.679688 3.1875 -2.296875 Z M 3.1875 0 "/></g></g></g></svg>